# xmcd
# 
# Track frame offsets:
#     150
#     21950
#     41325
#     58092
#     76807
#     94932
#     114405
#     134972
#     155532
#     178672
#     200002
#     218882
# 
# Disc length: 3218
# 
# Revision: 14
# Processed by: cddbd v1.5.2PL0 Copyright (c) Steve Scherf et al.
# Submitted via: fre:ac v1.0.31
# 
DISCID=ab0c900c
DTITLE=Bee Gees - - Still Waters
DYEAR=1997
DGENRE=Pop
TTITLE0=Bee Gees - Alone
TTITLE1=Bee Gees - I Surrender
TTITLE2=Bee Gees - I Could Not Love You More
TTITLE3=Bee Gees - Still Waters Run Deep
TTITLE4=Bee Gees - My Lover's Prayer
TTITLE5=Bee Gees - With My Eyes Closed
TTITLE6=Bee Gees - Irresistible Force
TTITLE7=Bee Gees - Closer Than Close
TTITLE8=Bee Gees - I Will
TTITLE9=Bee Gees - Obsessions
TTITLE10=Bee Gees - Miracles Happen
TTITLE11=Bee Gees - Smoke And Mirrors
EXTD=YEAR: 1997
EXTT0=
EXTT1=
EXTT2=
EXTT3=
EXTT4=
EXTT5=
EXTT6=
EXTT7=
EXTT8=
EXTT9=
EXTT10=
EXTT11=
PLAYORDER=
